<svg xmlns="http://www.w3.org/2000/svg" width="128" height="128" viewBox="0 0 128 128" role="img" aria-labelledby="title desc">
  <title id="title">iTGuy Datadog Monitors Panel</title>
  <desc id="desc">Panel icon with alert cards and monitor visibility table</desc>
  <defs>
    <linearGradient id="bg" x1="18" y1="10" x2="110" y2="118" gradientUnits="userSpaceOnUse">
      <stop offset="0" stop-color="#111827"/>
      <stop offset="1" stop-color="#374151"/>
    </linearGradient>
  </defs>
  <rect x="8" y="8" width="112" height="112" rx="24" fill="url(#bg)"/>
  <rect x="24" y="26" width="80" height="76" rx="8" fill="#F8FAFC"/>
  <rect x="32" y="36" width="16" height="16" rx="4" fill="#EF4444"/>
  <rect x="56" y="36" width="16" height="16" rx="4" fill="#F59E0B"/>
  <rect x="80" y="36" width="16" height="16" rx="4" fill="#22C55E"/>
  <rect x="32" y="62" width="64" height="7" rx="3.5" fill="#CBD5E1"/>
  <rect x="32" y="76" width="44" height="7" rx="3.5" fill="#CBD5E1"/>
  <rect x="32" y="90" width="56" height="7" rx="3.5" fill="#CBD5E1"/>
  <path d="M89 73l7 7-7 7" fill="none" stroke="#2563EB" stroke-width="5" stroke-linecap="round" stroke-linejoin="round"/>
  <circle cx="104" cy="30" r="12" fill="#EF4444" stroke="#F8FAFC" stroke-width="5"/>
  <path d="M104 23v9" stroke="#FFFFFF" stroke-width="4" stroke-linecap="round"/>
  <circle cx="104" cy="38" r="2" fill="#FFFFFF"/>
</svg>
