<svg xmlns="http://www.w3.org/2000/svg" width="128" height="128" viewBox="0 0 128 128" role="img" aria-labelledby="title desc">
  <title id="title">iTGuy Datadog Monitors Datasource</title>
  <desc id="desc">Datasource icon with database, monitor pulse and connection nodes</desc>
  <defs>
    <linearGradient id="bg" x1="16" y1="12" x2="112" y2="116" gradientUnits="userSpaceOnUse">
      <stop offset="0" stop-color="#7C3AED"/>
      <stop offset="1" stop-color="#2563EB"/>
    </linearGradient>
    <linearGradient id="accent" x1="34" y1="32" x2="94" y2="96" gradientUnits="userSpaceOnUse">
      <stop offset="0" stop-color="#F8FAFC"/>
      <stop offset="1" stop-color="#DBEAFE"/>
    </linearGradient>
  </defs>
  <rect x="8" y="8" width="112" height="112" rx="24" fill="url(#bg)"/>
  <path d="M34 40c0-8.3 13.4-15 30-15s30 6.7 30 15v36c0 8.3-13.4 15-30 15s-30-6.7-30-15V40z" fill="none" stroke="url(#accent)" stroke-width="6" stroke-linejoin="round"/>
  <ellipse cx="64" cy="40" rx="30" ry="15" fill="none" stroke="#FFFFFF" stroke-width="6"/>
  <path d="M34 58c0 8.3 13.4 15 30 15s30-6.7 30-15" fill="none" stroke="#BFDBFE" stroke-width="5" stroke-linecap="round"/>
  <path d="M34 76c0 8.3 13.4 15 30 15s30-6.7 30-15" fill="none" stroke="#BFDBFE" stroke-width="5" stroke-linecap="round"/>
  <path d="M20 98h22l8-18 9 30 11-44 10 32h28" fill="none" stroke="#22C55E" stroke-width="6" stroke-linecap="round" stroke-linejoin="round"/>
  <circle cx="20" cy="98" r="5" fill="#22C55E"/>
  <circle cx="108" cy="98" r="5" fill="#22C55E"/>
</svg>
